<svg width="203" height="38" viewBox="0 0 203 38" fill="none" xmlns="http://www.w3.org/2000/svg">
<g clip-path="url(#clip0_401_3)">
<path fill-rule="evenodd" clip-rule="evenodd" d="M38.0371 21.7434C38.0433 21.6508 38.0446 21.5579 38.0408 21.4654C38.0074 20.6506 37.5863 19.8559 36.7745 19.3969L15.6293 7.44092C14.8175 6.98192 13.9044 7.02219 13.1675 7.4014C13.0902 7.44118 13.0148 7.48469 12.9417 7.53174C12.2448 7.98031 11.7534 8.751 11.745 9.68352L11.5266 33.9738C11.5089 35.9367 12.9048 37.5716 15.3712 36.1477L26.243 29.8708C26.3928 29.7843 26.4148 29.5774 26.2866 29.4622L24.6983 28.0359C24.6166 27.9625 24.4966 27.9501 24.4011 28.0052L14.488 33.7286C14.3176 33.827 14.1051 33.7036 14.1069 33.5074L14.3174 10.0928C14.3192 9.89906 14.5289 9.77797 14.6975 9.87333L35.0804 21.3983C35.2513 21.4949 35.2518 21.7406 35.0814 21.839L27.0813 26.4578C26.917 26.5527 26.4288 26.5417 27.0686 26.8902L28.9745 28.133C29.0547 28.1853 29.1577 28.188 29.2408 28.14L36.7348 23.8134C37.5478 23.344 37.9828 22.5515 38.0371 21.7434Z" fill="#957BBA"/>
<path d="M26.9538 26.6779L24.9302 26.68C24.8322 26.6802 24.738 26.6427 24.6672 26.5753L22.0834 24.1172C22.0126 24.0498 21.9184 24.0123 21.8204 24.0125L18.7124 24.0171C18.5017 24.0174 18.3312 23.8471 18.3315 23.6368L18.333 22.6199C18.3333 22.4096 18.5043 22.2388 18.715 22.2385L23.3097 22.2317C23.5613 22.2313 23.7984 22.1813 24.0208 22.0817C24.2433 21.9821 24.4366 21.8504 24.6007 21.6866C24.7647 21.517 24.8938 21.3211 24.9877 21.099C25.0816 20.8769 25.1288 20.6432 25.1292 20.3979C25.1295 20.1467 25.0831 19.9132 24.9898 19.6972C24.8965 19.4754 24.7681 19.2828 24.6045 19.1195C24.4409 18.9562 24.248 18.828 24.0258 18.7349C23.8036 18.6359 23.5667 18.5866 23.3152 18.587L17.7814 18.5952C17.5707 18.5955 17.3996 18.7663 17.3993 18.9766L17.3884 26.3104C17.3881 26.5207 17.2171 26.6915 17.0064 26.6918L15.9702 26.6933C15.7595 26.6936 15.589 26.5234 15.5893 26.3131L15.6028 17.2095C15.6031 16.9992 15.7742 16.8284 15.9849 16.8281L23.3178 16.8172C23.8151 16.8165 24.283 16.9122 24.7216 17.1043C25.1601 17.2905 25.54 17.5469 25.8614 17.8736C26.1885 18.1943 26.4454 18.5736 26.632 19.0114C26.8186 19.4433 26.9115 19.9046 26.9108 20.3952C26.9102 20.7983 26.8452 21.1868 26.7159 21.5608C26.5867 21.929 26.4048 22.268 26.1703 22.5779C25.9417 22.882 25.6692 23.1452 25.3529 23.3676C25.2185 23.4622 25.0789 23.5461 24.9339 23.6196C24.6713 23.7526 24.581 24.1157 24.7918 24.3199L26.9538 26.6779Z" fill="#957BBA"/>
<path d="M47.5092 29V15.3636H51.1758V17.7429H51.3178C51.5664 16.8965 51.9837 16.2573 52.5696 15.8253C53.1555 15.3873 53.8303 15.1683 54.5938 15.1683C54.7831 15.1683 54.9873 15.1802 55.2063 15.2038C55.4253 15.2275 55.6177 15.2601 55.7834 15.3015V18.6573C55.6058 18.604 55.3602 18.5567 55.0465 18.5153C54.7328 18.4738 54.4458 18.4531 54.1854 18.4531C53.629 18.4531 53.1319 18.5745 52.6939 18.8171C52.2618 19.0539 51.9186 19.3853 51.6641 19.8114C51.4155 20.2376 51.2912 20.7288 51.2912 21.2852V29H47.5092ZM63.8184 29.2663C62.4157 29.2663 61.2084 28.9822 60.1963 28.4141C59.1901 27.84 58.4148 27.0291 57.8703 25.9815C57.3258 24.928 57.0535 23.6822 57.0535 22.244C57.0535 20.8413 57.3258 19.6102 57.8703 18.5508C58.4148 17.4914 59.1813 16.6657 60.1697 16.0739C61.164 15.482 62.3299 15.1861 63.6675 15.1861C64.5671 15.1861 65.4046 15.3311 66.18 15.6211C66.9612 15.9052 67.6418 16.3343 68.2219 16.9084C68.8078 17.4825 69.2635 18.2045 69.589 19.0746C69.9146 19.9387 70.0773 20.9508 70.0773 22.1108V23.1495H58.5628V20.8058H66.5173C66.5173 20.2612 66.3989 19.7789 66.1622 19.3587C65.9255 18.9384 65.597 18.61 65.1768 18.3732C64.7625 18.1306 64.2801 18.0092 63.7297 18.0092C63.1556 18.0092 62.6466 18.1424 62.2027 18.4087C61.7647 18.6692 61.4214 19.0213 61.1729 19.4652C60.9243 19.9032 60.797 20.3915 60.7911 20.93V23.1584C60.7911 23.8331 60.9154 24.4161 61.164 24.9073C61.4185 25.3986 61.7765 25.7773 62.2382 26.0437C62.6998 26.31 63.2473 26.4432 63.8806 26.4432C64.3008 26.4432 64.6855 26.384 65.0347 26.2656C65.3839 26.1473 65.6828 25.9697 65.9314 25.733C66.18 25.4962 66.3693 25.2062 66.4996 24.8629L69.9974 25.0938C69.8199 25.9342 69.4559 26.6681 68.9055 27.2955C68.3609 27.9169 67.6566 28.4022 66.7925 28.7514C65.9343 29.0947 64.943 29.2663 63.8184 29.2663ZM80.2986 15.3636V18.2045H72.0866V15.3636H80.2986ZM73.9509 12.0966H77.7329V24.8097C77.7329 25.1589 77.7861 25.4311 77.8927 25.6264C77.9992 25.8158 78.1472 25.949 78.3366 26.0259C78.5319 26.1029 78.7568 26.1413 79.0113 26.1413C79.1888 26.1413 79.3664 26.1265 79.5439 26.0969C79.7215 26.0614 79.8576 26.0348 79.9523 26.017L80.5471 28.8313C80.3577 28.8905 80.0914 28.9586 79.7481 29.0355C79.4049 29.1184 78.9876 29.1687 78.4964 29.1864C77.5849 29.2219 76.7859 29.1006 76.0993 28.8224C75.4187 28.5443 74.889 28.1122 74.5102 27.5263C74.1314 26.9403 73.945 26.2005 73.9509 25.3068V12.0966ZM83.2622 29V15.3636H86.9287V17.7429H87.0708C87.3193 16.8965 87.7366 16.2573 88.3225 15.8253C88.9085 15.3873 89.5832 15.1683 90.3467 15.1683C90.5361 15.1683 90.7403 15.1802 90.9593 15.2038C91.1782 15.2275 91.3706 15.2601 91.5363 15.3015V18.6573C91.3588 18.604 91.1131 18.5567 90.7994 18.5153C90.4858 18.4738 90.1987 18.4531 89.9383 18.4531C89.382 18.4531 88.8848 18.5745 88.4468 18.8171C88.0148 19.0539 87.6715 19.3853 87.417 19.8114C87.1684 20.2376 87.0441 20.7288 87.0441 21.2852V29H83.2622ZM99.5181 29.2663C98.1391 29.2663 96.9465 28.9734 95.9403 28.3874C94.9401 27.7956 94.1677 26.9729 93.6232 25.9194C93.0787 24.86 92.8065 23.6319 92.8065 22.2351C92.8065 20.8265 93.0787 19.5954 93.6232 18.5419C94.1677 17.4825 94.9401 16.6598 95.9403 16.0739C96.9465 15.482 98.1391 15.1861 99.5181 15.1861C100.897 15.1861 102.087 15.482 103.087 16.0739C104.093 16.6598 104.868 17.4825 105.413 18.5419C105.958 19.5954 106.23 20.8265 106.23 22.2351C106.23 23.6319 105.958 24.86 105.413 25.9194C104.868 26.9729 104.093 27.7956 103.087 28.3874C102.087 28.9734 100.897 29.2663 99.5181 29.2663ZM99.5359 26.3366C100.163 26.3366 100.687 26.1591 101.107 25.804C101.527 25.4429 101.844 24.9517 102.057 24.3303C102.276 23.7088 102.386 23.0015 102.386 22.2085C102.386 21.4154 102.276 20.7081 102.057 20.0866C101.844 19.4652 101.527 18.974 101.107 18.6129C100.687 18.2519 100.163 18.0714 99.5359 18.0714C98.9026 18.0714 98.3699 18.2519 97.9379 18.6129C97.5117 18.974 97.1892 19.4652 96.9702 20.0866C96.7571 20.7081 96.6506 21.4154 96.6506 22.2085C96.6506 23.0015 96.7571 23.7088 96.9702 24.3303C97.1892 24.9517 97.5117 25.4429 97.9379 25.804C98.3699 26.1591 98.9026 26.3366 99.5359 26.3366ZM121.636 29.2663C120.239 29.2663 119.038 28.9704 118.032 28.3786C117.032 27.7808 116.262 26.9522 115.724 25.8928C115.191 24.8333 114.925 23.6141 114.925 22.2351C114.925 20.8383 115.194 19.6132 115.733 18.5597C116.277 17.5002 117.049 16.6746 118.05 16.0827C119.05 15.485 120.239 15.1861 121.619 15.1861C122.808 15.1861 123.85 15.4021 124.744 15.8342C125.637 16.2662 126.344 16.8729 126.865 17.6541C127.386 18.4354 127.673 19.3527 127.726 20.4062H124.158C124.057 19.7256 123.791 19.1781 123.359 18.7638C122.932 18.3436 122.373 18.1335 121.681 18.1335C121.095 18.1335 120.583 18.2933 120.145 18.6129C119.713 18.9266 119.375 19.3853 119.133 19.989C118.89 20.5927 118.769 21.3236 118.769 22.1818C118.769 23.0518 118.887 23.7917 119.124 24.4013C119.367 25.0109 119.707 25.4755 120.145 25.7951C120.583 26.1147 121.095 26.2745 121.681 26.2745C122.113 26.2745 122.5 26.1857 122.844 26.0082C123.193 25.8306 123.48 25.5732 123.705 25.2358C123.936 24.8925 124.087 24.4812 124.158 24.0018H127.726C127.667 25.0434 127.383 25.9608 126.874 26.7539C126.371 27.5411 125.676 28.1566 124.788 28.6005C123.9 29.0444 122.85 29.2663 121.636 29.2663ZM134.43 10.8182V29H130.648V10.8182H134.43ZM137.959 29V15.3636H141.741V29H137.959ZM139.859 13.6058C139.297 13.6058 138.815 13.4194 138.412 13.0465C138.016 12.6677 137.817 12.215 137.817 11.6882C137.817 11.1674 138.016 10.7205 138.412 10.3477C138.815 9.96887 139.297 9.77947 139.859 9.77947C140.422 9.77947 140.901 9.96887 141.297 10.3477C141.7 10.7205 141.901 11.1674 141.901 11.6882C141.901 12.215 141.7 12.6677 141.297 13.0465C140.901 13.4194 140.422 13.6058 139.859 13.6058ZM151.485 29.2663C150.083 29.2663 148.875 28.9822 147.863 28.4141C146.857 27.84 146.082 27.0291 145.537 25.9815C144.993 24.928 144.721 23.6822 144.721 22.244C144.721 20.8413 144.993 19.6102 145.537 18.5508C146.082 17.4914 146.848 16.6657 147.837 16.0739C148.831 15.482 149.997 15.1861 151.335 15.1861C152.234 15.1861 153.072 15.3311 153.847 15.6211C154.628 15.9052 155.309 16.3343 155.889 16.9084C156.475 17.4825 156.931 18.2045 157.256 19.0746C157.582 19.9387 157.744 20.9508 157.744 22.1108V23.1495H146.23V20.8058H154.184C154.184 20.2612 154.066 19.7789 153.829 19.3587C153.592 18.9384 153.264 18.61 152.844 18.3732C152.429 18.1306 151.947 18.0092 151.397 18.0092C150.823 18.0092 150.314 18.1424 149.87 18.4087C149.432 18.6692 149.088 19.0213 148.84 19.4652C148.591 19.9032 148.464 20.3915 148.458 20.93V23.1584C148.458 23.8331 148.582 24.4161 148.831 24.9073C149.085 25.3986 149.444 25.7773 149.905 26.0437C150.367 26.31 150.914 26.4432 151.548 26.4432C151.968 26.4432 152.353 26.384 152.702 26.2656C153.051 26.1473 153.35 25.9697 153.598 25.733C153.847 25.4962 154.036 25.2062 154.167 24.8629L157.664 25.0938C157.487 25.9342 157.123 26.6681 156.572 27.2955C156.028 27.9169 155.324 28.4022 154.46 28.7514C153.601 29.0947 152.61 29.2663 151.485 29.2663ZM164.494 21.1165V29H160.712V15.3636H164.317V17.7695H164.477C164.778 16.9764 165.284 16.3491 165.995 15.8874C166.705 15.4199 167.566 15.1861 168.578 15.1861C169.525 15.1861 170.351 15.3932 171.055 15.8075C171.759 16.2218 172.307 16.8137 172.697 17.5831C173.088 18.3466 173.283 19.258 173.283 20.3175V29H169.501V20.9922C169.507 20.1577 169.294 19.5066 168.862 19.0391C168.43 18.5656 167.835 18.3288 167.078 18.3288C166.569 18.3288 166.119 18.4383 165.728 18.6573C165.344 18.8763 165.042 19.1959 164.823 19.6161C164.61 20.0304 164.5 20.5305 164.494 21.1165ZM184.017 15.3636V18.2045H175.805V15.3636H184.017ZM177.67 12.0966H181.452V24.8097C181.452 25.1589 181.505 25.4311 181.611 25.6264C181.718 25.8158 181.866 25.949 182.055 26.0259C182.251 26.1029 182.476 26.1413 182.73 26.1413C182.908 26.1413 183.085 26.1265 183.263 26.0969C183.44 26.0614 183.576 26.0348 183.671 26.017L184.266 28.8313C184.076 28.8905 183.81 28.9586 183.467 29.0355C183.124 29.1184 182.706 29.1687 182.215 29.1864C181.304 29.2219 180.505 29.1006 179.818 28.8224C179.137 28.5443 178.608 28.1122 178.229 27.5263C177.85 26.9403 177.664 26.2005 177.67 25.3068V12.0966Z" fill="#404041"/>
</g>
<defs>
<clipPath id="clip0_401_3">
<rect width="203" height="37.5167" fill="white"/>
</clipPath>
</defs>
</svg>
