<svg width="203" height="38" viewBox="0 0 203 38" fill="none" xmlns="http://www.w3.org/2000/svg">
<g clip-path="url(#clip0_308_31)">
<path fill-rule="evenodd" clip-rule="evenodd" d="M38.0371 21.7434C38.0433 21.6508 38.0446 21.5579 38.0408 21.4654C38.0074 20.6506 37.5863 19.8559 36.7745 19.3969L15.6293 7.44092C14.8175 6.98192 13.9044 7.02219 13.1675 7.4014C13.0902 7.44118 13.0148 7.48469 12.9417 7.53174C12.2448 7.98031 11.7534 8.751 11.745 9.68352L11.5266 33.9738C11.5089 35.9367 12.9048 37.5716 15.3712 36.1477L26.243 29.8708C26.3928 29.7843 26.4148 29.5774 26.2866 29.4622L24.6983 28.0359C24.6166 27.9625 24.4966 27.9501 24.4011 28.0052L14.488 33.7286C14.3176 33.827 14.1051 33.7036 14.1069 33.5074L14.3174 10.0928C14.3192 9.89906 14.5289 9.77797 14.6975 9.87333L35.0804 21.3983C35.2513 21.4949 35.2518 21.7406 35.0814 21.839L27.0813 26.4578C26.917 26.5527 26.4288 26.5417 27.0686 26.8902L28.9745 28.133C29.0547 28.1853 29.1577 28.188 29.2408 28.14L36.7348 23.8134C37.5478 23.344 37.9828 22.5515 38.0371 21.7434Z" fill="#FBBF24"/>
<path d="M26.9538 26.6779L24.9302 26.68C24.8322 26.6802 24.738 26.6427 24.6672 26.5753L22.0834 24.1172C22.0126 24.0498 21.9184 24.0123 21.8204 24.0125L18.7124 24.0171C18.5017 24.0174 18.3312 23.8471 18.3315 23.6368L18.333 22.6199C18.3333 22.4096 18.5043 22.2388 18.715 22.2385L23.3097 22.2317C23.5613 22.2313 23.7984 22.1813 24.0208 22.0817C24.2433 21.9821 24.4366 21.8504 24.6007 21.6866C24.7647 21.517 24.8938 21.3211 24.9877 21.099C25.0816 20.8769 25.1288 20.6432 25.1292 20.3979C25.1295 20.1467 25.0831 19.9132 24.9898 19.6972C24.8965 19.4754 24.7681 19.2828 24.6045 19.1195C24.4409 18.9562 24.248 18.828 24.0258 18.7349C23.8036 18.6359 23.5667 18.5866 23.3152 18.587L17.7814 18.5952C17.5707 18.5955 17.3996 18.7663 17.3993 18.9766L17.3884 26.3104C17.3881 26.5207 17.2171 26.6915 17.0064 26.6918L15.9702 26.6933C15.7595 26.6936 15.589 26.5234 15.5893 26.3131L15.6028 17.2095C15.6031 16.9992 15.7742 16.8284 15.9849 16.8281L23.3178 16.8172C23.8151 16.8165 24.283 16.9122 24.7216 17.1043C25.1601 17.2905 25.54 17.5469 25.8614 17.8736C26.1885 18.1943 26.4454 18.5736 26.632 19.0114C26.8186 19.4433 26.9115 19.9046 26.9108 20.3952C26.9102 20.7983 26.8452 21.1868 26.7159 21.5608C26.5867 21.929 26.4048 22.268 26.1703 22.5779C25.9417 22.882 25.6692 23.1452 25.3529 23.3676C25.2185 23.4622 25.0789 23.5461 24.9339 23.6196C24.6713 23.7526 24.581 24.1157 24.7918 24.3199L26.9538 26.6779Z" fill="#FBBF24"/>
<path d="M47.5093 29V15.3636H51.1758V17.7429H51.3179C51.5665 16.8965 51.9837 16.2573 52.5696 15.8253C53.1556 15.3873 53.8303 15.1683 54.5938 15.1683C54.7832 15.1683 54.9874 15.1802 55.2064 15.2038C55.4254 15.2275 55.6177 15.2601 55.7834 15.3015V18.6573C55.6059 18.604 55.3602 18.5567 55.0466 18.5153C54.7329 18.4738 54.4458 18.4531 54.1854 18.4531C53.6291 18.4531 53.1319 18.5745 52.6939 18.8171C52.2619 19.0539 51.9186 19.3853 51.6641 19.8114C51.4155 20.2376 51.2912 20.7288 51.2912 21.2852V29H47.5093Z" fill="white"/>
<path d="M63.8185 29.2663C62.4158 29.2663 61.2084 28.9822 60.1963 28.4141C59.1902 27.84 58.4148 27.0291 57.8703 25.9815C57.3258 24.928 57.0536 23.6822 57.0536 22.244C57.0536 20.8413 57.3258 19.6102 57.8703 18.5508C58.4148 17.4914 59.1813 16.6657 60.1697 16.0739C61.164 15.482 62.33 15.1861 63.6676 15.1861C64.5672 15.1861 65.4047 15.3311 66.18 15.6211C66.9612 15.9052 67.6419 16.3343 68.2219 16.9084C68.8078 17.4825 69.2636 18.2045 69.5891 19.0746C69.9146 19.9387 70.0774 20.9508 70.0774 22.1108V23.1495H58.5628V20.8057H66.5174C66.5174 20.2612 66.399 19.7789 66.1622 19.3587C65.9255 18.9384 65.597 18.61 65.1768 18.3732C64.7625 18.1306 64.2801 18.0092 63.7297 18.0092C63.1556 18.0092 62.6466 18.1424 62.2027 18.4087C61.7648 18.6691 61.4215 19.0213 61.1729 19.4652C60.9243 19.9032 60.7971 20.3914 60.7911 20.93V23.1584C60.7911 23.8331 60.9154 24.4161 61.164 24.9073C61.4185 25.3986 61.7766 25.7773 62.2382 26.0437C62.6999 26.31 63.2474 26.4432 63.8806 26.4432C64.3009 26.4432 64.6856 26.384 65.0348 26.2656C65.384 26.1472 65.6828 25.9697 65.9314 25.7329C66.18 25.4962 66.3694 25.2062 66.4996 24.8629L69.9975 25.0937C69.8199 25.9342 69.4559 26.6681 68.9055 27.2954C68.361 27.9169 67.6567 28.4022 66.7926 28.7514C65.9344 29.0947 64.943 29.2663 63.8185 29.2663Z" fill="white"/>
<path d="M80.2986 15.3636V18.2045H72.0866V15.3636H80.2986ZM73.9509 12.0966H77.7329V24.8097C77.7329 25.1588 77.7862 25.4311 77.8927 25.6264C77.9992 25.8158 78.1472 25.949 78.3366 26.0259C78.5319 26.1029 78.7568 26.1413 79.0113 26.1413C79.1889 26.1413 79.3664 26.1265 79.544 26.0969C79.7215 26.0614 79.8577 26.0348 79.9524 26.017L80.5472 28.8313C80.3578 28.8905 80.0915 28.9586 79.7482 29.0355C79.4049 29.1184 78.9876 29.1687 78.4964 29.1864C77.5849 29.2219 76.7859 29.1006 76.0994 28.8224C75.4188 28.5443 74.889 28.1122 74.5103 27.5263C74.1315 26.9403 73.945 26.2005 73.9509 25.3068V12.0966Z" fill="white"/>
<path d="M83.2622 29V15.3636H86.9288V17.7429H87.0708C87.3194 16.8965 87.7366 16.2573 88.3226 15.8253C88.9085 15.3873 89.5832 15.1683 90.3467 15.1683C90.5361 15.1683 90.7403 15.1802 90.9593 15.2038C91.1783 15.2275 91.3706 15.2601 91.5364 15.3015V18.6573C91.3588 18.604 91.1132 18.5567 90.7995 18.5153C90.4858 18.4738 90.1988 18.4531 89.9383 18.4531C89.382 18.4531 88.8848 18.5745 88.4469 18.8171C88.0148 19.0539 87.6715 19.3853 87.417 19.8114C87.1685 20.2376 87.0442 20.7288 87.0442 21.2852V29H83.2622Z" fill="white"/>
<path d="M99.5182 29.2663C98.1391 29.2663 96.9465 28.9734 95.9404 28.3874C94.9402 27.7956 94.1678 26.9729 93.6233 25.9194C93.0788 24.86 92.8065 23.6319 92.8065 22.2351C92.8065 20.8265 93.0788 19.5954 93.6233 18.5419C94.1678 17.4825 94.9402 16.6598 95.9404 16.0739C96.9465 15.482 98.1391 15.1861 99.5182 15.1861C100.897 15.1861 102.087 15.482 103.087 16.0739C104.093 16.6598 104.869 17.4825 105.413 18.5419C105.958 19.5954 106.23 20.8265 106.23 22.2351C106.23 23.6319 105.958 24.86 105.413 25.9194C104.869 26.9729 104.093 27.7956 103.087 28.3874C102.087 28.9734 100.897 29.2663 99.5182 29.2663ZM99.5359 26.3366C100.163 26.3366 100.687 26.1591 101.107 25.804C101.528 25.4429 101.844 24.9517 102.057 24.3303C102.276 23.7088 102.386 23.0015 102.386 22.2084C102.386 21.4154 102.276 20.7081 102.057 20.0866C101.844 19.4652 101.528 18.974 101.107 18.6129C100.687 18.2519 100.163 18.0714 99.5359 18.0714C98.9026 18.0714 98.37 18.2519 97.9379 18.6129C97.5118 18.974 97.1892 19.4652 96.9702 20.0866C96.7571 20.7081 96.6506 21.4154 96.6506 22.2084C96.6506 23.0015 96.7571 23.7088 96.9702 24.3303C97.1892 24.9517 97.5118 25.4429 97.9379 25.804C98.37 26.1591 98.9026 26.3366 99.5359 26.3366Z" fill="white"/>
<path d="M126.821 19.2521L123.359 19.4652C123.299 19.1693 123.172 18.9029 122.977 18.6662C122.782 18.4235 122.524 18.2312 122.205 18.0891C121.891 17.9412 121.515 17.8672 121.077 17.8672C120.491 17.8672 119.997 17.9915 119.594 18.2401C119.192 18.4827 118.991 18.8082 118.991 19.2166C118.991 19.5421 119.121 19.8173 119.381 20.0423C119.642 20.2672 120.089 20.4477 120.722 20.5838L123.19 21.081C124.516 21.3532 125.504 21.7912 126.155 22.3949C126.806 22.9986 127.132 23.7917 127.132 24.7741C127.132 25.6678 126.868 26.4521 126.342 27.1268C125.821 27.8015 125.105 28.3282 124.193 28.707C123.288 29.0799 122.243 29.2663 121.059 29.2663C119.254 29.2663 117.816 28.8905 116.745 28.1388C115.679 27.3813 115.055 26.3514 114.871 25.0494L118.591 24.854C118.704 25.4045 118.976 25.8247 119.408 26.1147C119.84 26.3988 120.393 26.5408 121.068 26.5408C121.731 26.5408 122.264 26.4136 122.666 26.1591C123.075 25.8987 123.282 25.5643 123.288 25.1559C123.282 24.8126 123.137 24.5315 122.853 24.3125C122.568 24.0876 122.131 23.916 121.539 23.7976L119.177 23.3271C117.845 23.0607 116.854 22.5991 116.203 21.9421C115.558 21.2852 115.235 20.4477 115.235 19.4297C115.235 18.5537 115.472 17.7991 115.946 17.1658C116.425 16.5325 117.097 16.0443 117.961 15.701C118.831 15.3577 119.849 15.1861 121.015 15.1861C122.737 15.1861 124.093 15.5501 125.081 16.278C126.075 17.006 126.655 17.9974 126.821 19.2521Z" fill="white"/>
<path d="M135.038 29.2219C134.002 29.2219 133.064 28.9556 132.224 28.4229C131.389 27.8843 130.726 27.0942 130.235 26.0526C129.75 25.005 129.507 23.7206 129.507 22.1996C129.507 20.6371 129.759 19.3379 130.262 18.3022C130.765 17.2605 131.434 16.4822 132.268 15.9673C133.109 15.4465 134.029 15.1861 135.029 15.1861C135.793 15.1861 136.429 15.3163 136.938 15.5767C137.453 15.8312 137.867 16.1508 138.181 16.5355C138.5 16.9143 138.743 17.2872 138.909 17.6541H139.024V10.8182H142.797V29H139.069V26.816H138.909C138.731 27.1948 138.48 27.5707 138.154 27.9435C137.835 28.3105 137.417 28.6153 136.902 28.8579C136.393 29.1006 135.772 29.2219 135.038 29.2219ZM136.237 26.2124C136.846 26.2124 137.361 26.0466 137.781 25.7152C138.207 25.3778 138.533 24.9073 138.758 24.3036C138.989 23.6999 139.104 22.9927 139.104 22.1818C139.104 21.371 138.992 20.6667 138.767 20.0689C138.542 19.4711 138.216 19.0095 137.79 18.6839C137.364 18.3584 136.846 18.1957 136.237 18.1957C135.615 18.1957 135.091 18.3643 134.665 18.7017C134.239 19.0391 133.916 19.5066 133.697 20.1044C133.479 20.7022 133.369 21.3946 133.369 22.1818C133.369 22.9749 133.479 23.6762 133.697 24.2859C133.922 24.8896 134.245 25.363 134.665 25.7063C135.091 26.0437 135.615 26.2124 136.237 26.2124Z" fill="white"/>
<path d="M149.834 25.076L149.842 20.5394H150.393L154.761 15.3636H159.102L153.234 22.2173H152.337L149.834 25.076ZM146.407 29V10.8182H150.189V29H146.407ZM154.929 29L150.917 23.0607L153.438 20.3885L159.36 29H154.929Z" fill="white"/>
</g>
<defs>
<clipPath id="clip0_308_31">
<rect width="203" height="37.5167" fill="white"/>
</clipPath>
</defs>
</svg>
